<svg width="58" height="58" viewBox="0 0 58 58" fill="none" xmlns="http://www.w3.org/2000/svg">
<path d="M0 34.4446C0.136211 33.4189 0.24972 32.3898 0.413172 31.3686C1.09082 27.1363 2.57325 23.1798 4.61073 19.4275C8.58014 12.1192 13.9627 5.98075 20.317 0.662641C21.3771 -0.224657 22.1172 -0.217849 23.191 0.66491C26.9368 3.74436 30.2921 7.20958 33.3103 11.0016C33.5203 11.266 33.728 11.5326 33.9868 11.8605C34.1401 11.6778 34.2695 11.5303 34.3909 11.3772C36.4432 8.7788 38.685 6.35973 41.2321 4.23566C42.2015 3.42779 43.0119 3.41644 43.9654 4.24247C49.1232 8.70732 53.3764 13.8643 56.0325 20.2138C57.3413 23.3421 58.0587 26.6019 57.9962 30.0115C57.8578 37.5797 52.2005 44.0506 44.7146 45.1603C43.8235 45.2919 42.9086 45.2771 42.0051 45.2964C41.693 45.3032 41.5057 45.3532 41.3479 45.6675C38.1049 52.1078 32.9584 56.0995 25.8959 57.5949C25.0525 57.7742 24.191 57.8672 23.3374 58H20.2784C19.536 57.8911 18.7914 57.7946 18.0525 57.6709C9.48367 56.2356 2.46428 49.599 0.566409 41.1141C0.317825 39.9999 0.186155 38.8584 0 37.7294C0 36.6345 0 35.5396 0 34.4458V34.4446ZM21.7494 4.17779C16.7585 8.5133 12.4565 13.339 9.06709 18.9442C6.75945 22.7623 4.98531 26.8005 4.13172 31.2029C3.56759 34.1156 3.37008 37.0441 4.0114 39.9681C7.03869 53.7893 23.5758 59.0598 34.0447 49.5434C35.6066 48.124 36.8688 46.4708 37.8507 44.5737C37.6963 44.509 37.5783 44.4534 37.4557 44.4091C31.4295 42.2022 27.2841 36.3565 27.1933 29.9457C27.1457 26.6337 27.804 23.4533 29.0923 20.4203C29.8778 18.5709 30.8279 16.7906 31.7394 14.9059C28.8744 11.0311 25.5168 7.45013 21.7506 4.17779H21.7494ZM42.6294 7.86995C42.5091 7.96072 42.4251 8.00497 42.3638 8.07078C40.8042 9.73532 39.1651 11.334 37.7054 13.0825C35.0152 16.3072 32.8733 19.87 31.6758 23.9321C30.8063 26.8844 30.4385 29.8731 31.2728 32.9072C32.77 38.3558 37.9301 42.0865 43.3854 41.6701C49.0517 41.2367 53.6681 36.7264 54.2788 31.0271C54.6148 27.8943 53.9848 24.9079 52.8554 22.0122C51.2152 17.8061 48.6442 14.1922 45.6181 10.8859C44.6669 9.84651 43.6362 8.88092 42.6283 7.86881L42.6294 7.86995Z" fill="white"/>
</svg>
