<svg width="200" height="45" viewBox="0 0 200 45" fill="none" xmlns="http://www.w3.org/2000/svg">
<path d="M115.933 0.378592C116.527 1.03856 116.513 1.41879 115.841 2.02348C112.898 4.66837 110.852 7.86101 109.832 11.6081C108.058 18.1206 109.293 24.1223 113.459 29.5076C116.33 33.2178 120.175 35.6064 124.785 36.8342C126.912 37.4004 129.088 37.6097 131.295 37.4942C131.522 37.4824 131.751 37.4674 131.978 37.469C132.385 37.4724 132.696 37.6399 132.856 38.0101C133.02 38.397 132.927 38.7471 132.61 39.0218C132.229 39.3518 131.837 39.6734 131.434 39.9783C127.501 42.9347 123.047 44.5561 118.067 44.732C113.892 44.8794 109.944 43.9783 106.275 42.0503C101.539 39.5628 98.1144 35.8928 96.0148 31.0938C94.2617 27.0871 93.7698 22.9213 94.5528 18.6332C94.726 17.6868 95.0188 16.7622 95.2543 15.8275C95.2907 15.6834 95.3184 15.5377 95.3496 15.392C95.6666 14.6248 95.9854 13.856 96.3024 13.0888C96.4063 12.9113 96.5051 12.7304 96.6125 12.5545C97.1893 11.6081 97.709 10.6198 98.3569 9.72198C101.26 5.69852 105.134 2.91628 109.948 1.35347C111.791 0.755476 113.688 0.435543 115.614 0.254639L115.931 0.376917L115.933 0.378592ZM112.735 2.49249C105.07 3.92633 97.9308 10.0905 96.344 19.0402C94.7295 28.1458 99.6527 37.1876 108.306 41.052C116.395 44.665 124.622 42.6483 129.116 39.3401C119.87 38.4741 112.901 34.2128 109.166 25.8459C105.426 17.4674 106.989 9.62315 112.735 2.49249Z" fill="white"/>
<path d="M22.2116 12.8426V15.9548H3.035V26.8928H21.6123V30.0051H3.035V43.3451H0V12.8426H22.2116Z" fill="white"/>
<path d="M25.6589 31.5628C25.6589 23.2479 29.7974 20.2245 36.4651 20.2245C43.1327 20.2245 47.2712 23.2479 47.2712 31.5628C47.2712 39.8778 42.6719 43.7907 36.4651 43.7907C30.2582 43.7907 25.6589 39.9665 25.6589 31.5628ZM44.3297 31.5628C44.3297 26.0938 42.031 23.2479 36.4668 23.2479C30.9026 23.2479 28.6038 26.0938 28.6038 31.5628C28.6038 37.0319 31.4085 40.7672 36.4668 40.7672C41.5251 40.7672 44.3297 37.2546 44.3297 31.5628Z" fill="white"/>
<path d="M65.0672 23.6918H61.6649C57.7101 23.6918 55.3645 25.9598 55.3645 29.784V43.3451H52.4213V20.6684H55.3645V23.4255C56.6516 21.5126 58.8135 20.6684 61.8936 20.6684H65.0672V23.6918Z" fill="white"/>
<path d="M87.8297 36.5427C86.5426 41.5679 82.6328 43.7907 77.8516 43.7907C71.643 43.7907 67.0455 40.0118 67.0455 31.5628C67.0455 23.1139 71.1839 20.2245 77.8516 20.2245C84.5192 20.2245 88.4741 23.2479 88.4741 31.5628V33.2965H70.0337C70.5395 37.9649 73.2991 40.7672 77.8516 40.7672C81.2088 40.7672 83.738 39.2999 84.7029 36.5427H87.8297ZM85.4841 30.2731C85.2537 25.6935 83.0017 23.2479 77.8499 23.2479C72.698 23.2479 70.3091 25.6483 70.032 30.2731H85.4841Z" fill="white"/>
<path d="M158.799 43.3451H155.856V40.588C154.752 42.3669 151.901 43.789 147.854 43.789C142.474 43.789 139.071 41.0771 139.071 36.2747C139.071 32.5846 140.956 29.9163 147.12 29.9163H153.649C155.213 29.9163 155.856 29.5159 155.856 28.1826C155.856 25.2027 153.51 23.2463 148.958 23.2463C144.405 23.2463 142.429 24.9799 141.968 27.603H138.841C139.208 23.6449 142.565 20.2211 148.958 20.2211C154.844 20.2211 158.799 22.8895 158.799 28.5813V43.3451ZM155.856 34.8962V31.6952C155.211 32.7622 154.108 32.9397 152.637 32.9397H147.487C143.946 32.9397 142.014 33.6516 142.014 36.2747C142.014 39.2094 144.176 40.7655 147.854 40.7655C152.729 40.7655 155.856 38.5863 155.856 34.8962Z" fill="white"/>
<path d="M163.719 36.1876H166.8C167.259 39.0335 169.56 40.7672 174.112 40.7672C177.653 40.7672 180.55 39.5226 180.55 36.8995C180.55 34.7203 179.446 33.9196 175.538 33.6985L170.986 33.4322C166.111 33.1659 163.674 31.2094 163.674 27.2077C163.674 22.6717 167.582 20.2262 173.376 20.2262C179.999 20.2262 183.217 23.3384 183.815 27.6081H180.78C180.227 24.7622 177.929 23.2513 173.376 23.2513C169.146 23.2513 166.617 24.6734 166.617 27.253C166.617 29.2546 167.996 30.1424 171.767 30.3652L176.411 30.6315C181.378 30.8979 183.493 32.9883 183.493 36.9464C183.493 41.3484 179.585 43.794 174.112 43.794C167.812 43.794 164.179 40.7705 163.72 36.191L163.719 36.1876Z" fill="white"/>
<path d="M192.504 23.6918V37.9213C192.504 39.655 193.194 40.3216 194.987 40.3216H199.998V43.3451H195.17C191.124 43.3451 189.559 41.8325 189.559 37.9196V23.6902H186.294V20.6667H189.559V16.4875H192.503V20.6667H199.998V23.6902H192.503L192.504 23.6918Z" fill="white"/>
</svg>
