<svg width="53" height="49" viewBox="0 0 53 49" fill="none" xmlns="http://www.w3.org/2000/svg">
<path d="M26.8438 0.325073H30.6891C30.841 0.325073 30.9647 0.448769 30.9647 0.600717C30.9647 0.658747 30.9647 0.716013 30.9647 0.774044C30.9731 2.97461 30.9296 5.1767 31.0136 7.37421C31.0525 8.38898 31.2808 9.40909 31.532 10.3994C31.9001 11.8479 32.4193 13.2589 32.7782 14.7097C33.1958 16.3994 33.3447 18.1205 32.9087 19.8415C32.559 21.2228 31.8932 22.4575 31.1411 23.6547C30.5341 24.6206 29.9431 25.598 29.3781 26.5898C28.7023 27.7756 28.6137 29.0721 28.9092 30.3633C29.2315 31.769 29.6499 33.1556 30.0759 34.5346C30.5807 36.1694 30.9235 37.8263 30.9655 39.5405C30.9655 39.5405 30.9655 39.542 30.9655 39.5428C30.9693 39.6894 31.0922 39.8047 31.2388 39.8047H36.7639C37.0098 39.8047 37.1327 40.1017 36.9586 40.275C34.2747 42.9589 31.597 45.6367 28.9352 48.2977C28.8275 48.4054 28.6534 48.4054 28.5458 48.2977C25.9153 45.6619 23.2414 42.9826 20.5559 40.2911C20.3826 40.117 20.5056 39.8207 20.7507 39.8207H26.2841C26.4391 39.8207 26.5636 39.6924 26.5598 39.5374C26.5338 38.457 26.3475 37.443 26.0558 36.4435C25.5763 34.8026 25.025 33.1786 24.6425 31.5148C24.0225 28.8209 24.3997 26.2417 25.8459 23.8525C26.5751 22.6476 27.3088 21.445 28.0441 20.2439C28.8436 18.9382 28.9383 17.5249 28.5794 16.0902C28.1984 14.5677 27.7211 13.0696 27.2806 11.5623C26.8186 9.98022 26.5628 8.37065 26.5689 6.71908C26.5766 4.69642 26.5697 2.673 26.5689 0.650348C26.5689 0.633549 26.5689 0.617515 26.5689 0.600717C26.5689 0.448769 26.6926 0.325073 26.8446 0.325073L26.8438 0.325073Z" fill="white"/>
<path d="M11.6153 39.8085H16.6547C17.025 39.8085 17.2106 40.2559 16.9487 40.5178C14.3915 43.0742 11.8291 45.6351 9.28565 48.177C9.12301 48.3389 8.86111 48.3389 8.69924 48.177C6.18562 45.6611 3.6216 43.0956 1.05682 40.5285C0.795683 40.2666 0.980464 39.8191 1.35079 39.8191H6.3872C6.62542 39.8191 6.81479 39.6191 6.80181 39.3809C6.77814 38.9411 6.76363 38.5142 6.66055 38.1088C6.29404 36.6626 5.88172 35.2264 5.44955 33.7978C4.88681 31.9377 4.50274 30.0579 4.65469 28.1009C4.77533 26.5478 5.33425 25.1383 6.11079 23.8112C6.84075 22.5636 7.6211 21.3449 8.35869 20.1011C9.03291 18.9642 9.18028 17.7165 8.88097 16.4582C8.51217 14.9082 8.0548 13.3788 7.60277 11.8501C7.09119 10.1222 6.79341 8.36756 6.80181 6.56175C6.8102 4.62767 6.8041 2.69358 6.8041 0.760263V0.747283C6.8041 0.518217 6.9904 0.331909 7.21947 0.331909H10.799C11.0281 0.331909 11.2144 0.518217 11.2144 0.747283C11.2144 2.54164 11.248 4.33599 11.2045 6.12882C11.1609 7.91859 11.5106 9.62513 12.036 11.3233C12.4995 12.8214 12.9293 14.3393 13.2332 15.8764C13.6562 18.0174 13.3814 20.1072 12.2994 22.0321C11.5603 23.3477 10.7731 24.6381 9.9675 25.914C9.01611 27.4213 8.79392 29.0347 9.20548 30.7374C9.45516 31.7698 9.75294 32.7929 10.0843 33.8023C10.6799 35.6158 11.1472 37.4491 11.2006 39.403C11.2068 39.6283 11.39 39.8077 11.6153 39.8077V39.8085Z" fill="white"/>
<path d="M50.7232 22.2581H44.1123C42.9185 22.2581 41.9507 23.2258 41.9507 24.4197V24.4632C41.9507 25.657 42.9185 26.6248 44.1123 26.6248H50.7232C51.917 26.6248 52.8848 25.657 52.8848 24.4632V24.4197C52.8848 23.2258 51.917 22.2581 50.7232 22.2581Z" fill="white"/>
<path d="M50.7323 0.338013H44.1008C42.907 0.338013 41.9392 1.3058 41.9392 2.49964V2.5004C41.9392 3.69423 42.907 4.66202 44.1008 4.66202H50.7323C51.9261 4.66202 52.8939 3.69423 52.8939 2.5004V2.49964C52.8939 1.3058 51.9261 0.338013 50.7323 0.338013Z" fill="white"/>
<path d="M50.7224 44.2386H44.1055C42.9116 44.2386 41.9438 45.2064 41.9438 46.4003V46.4102C41.9438 47.604 42.9116 48.5718 44.1055 48.5718H50.7224C51.9163 48.5718 52.8841 47.604 52.8841 46.4102V46.4003C52.8841 45.2064 51.9163 44.2386 50.7224 44.2386Z" fill="white"/>
<path d="M50.7322 11.2974H48.5286C47.3347 11.2974 46.3669 12.2652 46.3669 13.459V13.4819C46.3669 14.6757 47.3347 15.6435 48.5286 15.6435H50.7322C51.926 15.6435 52.8938 14.6757 52.8938 13.4819V13.459C52.8938 12.2652 51.926 11.2974 50.7322 11.2974Z" fill="white"/>
<path d="M50.7415 33.2526H48.5242C47.3303 33.2526 46.3625 34.2204 46.3625 35.4142V35.4409C46.3625 36.6347 47.3303 37.6025 48.5242 37.6025H50.7415C51.9354 37.6025 52.9032 36.6347 52.9032 35.4409V35.4142C52.9032 34.2204 51.9354 33.2526 50.7415 33.2526Z" fill="white"/>
</svg>
