<svg width="66" height="39" viewBox="0 0 66 39" fill="none" xmlns="http://www.w3.org/2000/svg">
<g clip-path="url(#clip0_2_541)">
<path d="M0.46228 19.2672C0.872582 18.1824 1.68807 17.8605 2.77966 17.8605C20.4252 17.8748 38.0708 17.8644 55.7176 17.8787C57.8995 17.88 59.7324 17.1883 61.0387 15.3729C62.3565 13.5406 62.6007 11.5019 61.7353 9.42694C60.8738 7.35845 59.2901 6.12306 57.0699 5.76879C53.6328 5.22117 50.3606 7.8866 50.2098 11.6291C50.1549 13.0046 49.1272 13.8364 47.9806 13.5146C47.1715 13.2875 46.659 12.5777 46.6551 11.6758C46.6321 7.05219 50.2303 2.83994 54.7615 2.1872C60.8329 1.31257 66.0429 6.11527 65.7629 12.3298C65.5418 17.2312 61.4299 21.3383 56.6008 21.4616C55.3891 21.4927 54.1773 21.4759 52.9656 21.4759C36.2557 21.4759 19.5445 21.4681 2.83462 21.494C1.7392 21.4953 0.940327 21.1943 0.463558 20.1717V19.2646L0.46228 19.2672Z" fill="white"/>
<path d="M40.5313 23.7275C44.8465 23.7275 49.1604 23.7171 53.4756 23.7314C56.9152 23.7431 59.6071 25.6325 60.5709 28.7664C61.4247 31.5434 60.8265 34.0466 58.8095 36.0905C56.7874 38.1395 54.2949 38.7365 51.5851 37.8307C48.8523 36.9171 47.2469 34.9187 46.7561 32.0262C46.7165 31.7926 46.6845 31.5564 46.673 31.3202C46.6104 30.1264 47.2738 29.2842 48.3334 29.2037C49.3879 29.1233 50.1293 29.8642 50.2213 31.0918C50.3875 33.3161 52.0619 34.7695 54.2233 34.5657C55.9195 34.4061 57.3025 32.8969 57.3652 31.1347C57.4303 29.3166 56.1828 27.7075 54.4649 27.4246C54.0482 27.3558 53.62 27.3299 53.197 27.3299C44.4196 27.3247 35.6409 27.3273 26.8635 27.3247C25.6863 27.3247 24.9999 26.8458 24.8069 25.9076C24.596 24.8863 25.2363 23.9352 26.2551 23.7794C26.5478 23.7353 26.8481 23.7327 27.1447 23.7327C31.6082 23.7301 36.0716 23.7314 40.5351 23.7314L40.5313 23.7275Z" fill="white"/>
<path d="M24.1944 15.0668C19.7309 15.0668 15.2687 15.0668 10.8053 15.0642C10.487 15.0642 10.1649 15.0603 9.85302 15.0045C9.00046 14.8527 8.41249 14.0766 8.447 13.189C8.48151 12.3014 9.127 11.5838 9.98979 11.493C10.2633 11.4644 10.542 11.4722 10.8181 11.4722C19.5737 11.4722 28.3307 11.4722 37.0863 11.4696C38.9998 11.4696 40.3739 10.5379 40.8851 8.91968C41.5076 6.9498 40.3841 4.87871 38.3875 4.31292C36.4728 3.77049 34.443 5.01886 34.0033 7.01858C33.9432 7.29109 33.9177 7.57269 33.8908 7.85039C33.7886 8.93914 33.0511 9.64508 32.0605 9.59317C31.0443 9.53997 30.3323 8.73281 30.3451 7.64795C30.3847 4.35834 32.8133 1.39964 36.019 0.736526C40.1463 -0.116048 43.9988 2.69861 44.5728 6.98614C45.1122 11.0154 42.0202 14.8397 37.9018 15.0032C34.2948 15.1459 30.6774 15.0551 27.0653 15.0655C26.1092 15.0681 25.1531 15.0655 24.1957 15.0655L24.1944 15.0668Z" fill="white"/>
<path d="M19.418 27.3143C18.844 27.3143 18.2688 27.3363 17.6962 27.3091C16.7414 27.265 16.0499 26.5564 16.0141 25.6221C15.9758 24.6424 16.6072 23.8274 17.5863 23.7742C18.8146 23.708 20.0519 23.7093 21.2803 23.7716C22.2466 23.8209 22.9343 24.6748 22.887 25.6039C22.8397 26.5525 22.115 27.274 21.1397 27.3117C20.5671 27.3337 19.9919 27.3156 19.418 27.3156C19.418 27.3156 19.418 27.3143 19.418 27.313V27.3143Z" fill="white"/>
<path d="M5.14566 11.4708C6.82394 11.3307 7.52439 12.8762 7.09619 13.9286C6.60281 15.1419 5.23641 15.2743 4.13844 14.9097C3.22964 14.6086 2.80528 13.5341 3.14528 12.6257C3.44182 11.8329 4.07325 11.4695 5.14566 11.4708Z" fill="white"/>
</g>
<defs>
<clipPath id="clip0_2_541">
<rect width="65.3096" height="37.656" fill="white" transform="translate(0.462402 0.584717)"/>
</clipPath>
</defs>
</svg>
